<svg width="14" height="14" viewBox="0 0 14 14" fill="none" xmlns="http://www.w3.org/2000/svg">
<path d="M12.4444 12.4444V1.55556H1.55556V12.4444H12.4444ZM12.4444 0C12.857 0 13.2527 0.163888 13.5444 0.455612C13.8361 0.747335 14 1.143 14 1.55556V12.4444C14 12.857 13.8361 13.2527 13.5444 13.5444C13.2527 13.8361 12.857 14 12.4444 14H1.55556C1.143 14 0.747335 13.8361 0.455612 13.5444C0.163888 13.2527 0 12.857 0 12.4444V1.55556C0 1.143 0.163888 0.747335 0.455612 0.455612C0.747335 0.163888 1.143 0 1.55556 0H12.4444ZM10.6556 4.93889L9.87778 5.71667L8.28333 4.12222L9.06111 3.34444C9.22444 3.17333 9.49667 3.17333 9.66 3.34444L10.6556 4.34C10.8267 4.50333 10.8267 4.77556 10.6556 4.93889ZM3.11111 9.28667L7.82444 4.57333L9.42667 6.17556L4.71333 10.8889H3.11111V9.28667Z" fill="black"/>
</svg>
