<svg width="45" height="45" viewBox="0 0 45 45" fill="none" xmlns="http://www.w3.org/2000/svg">
<g filter="url(#filter0_d_96_29)">
<path d="M39.3555 14.7417L36.1667 13.7167L35.4833 12.0083L37.0778 9.04721C37.4194 8.36388 37.3055 7.45277 36.7361 6.88333L34.0028 4.14999C33.4333 3.58055 32.5222 3.46666 31.8389 3.80833L28.8778 5.40277L27.1694 4.71944L26.1444 1.53055C25.9167 0.847215 25.2333 0.277771 24.4361 0.277771H20.5639C19.7667 0.277771 19.0833 0.847215 18.9694 1.64444L17.9444 4.83333C17.2611 4.94722 16.6917 5.17499 16.1222 5.51666L13.1611 3.92221C12.4778 3.58055 11.5667 3.69444 10.9972 4.26388L8.26388 6.99722C7.69444 7.56666 7.58055 8.47777 7.92221 9.1611L9.40277 12.0083C9.17499 12.5778 8.94722 13.2611 8.71944 13.8305L5.53055 14.8555C4.84722 15.0833 4.27777 15.7667 4.27777 16.5639V20.4361C4.27777 21.2333 4.84722 21.9167 5.64444 22.1444L8.83333 23.1694L9.51666 24.8778L7.92221 27.8389C7.58055 28.5222 7.69444 29.4333 8.26388 30.0028L10.9972 32.7361C11.5667 33.3055 12.4778 33.4194 13.1611 33.0778L16.1222 31.4833L17.8305 32.1667L18.8555 35.4694C19.0833 36.1528 19.7667 36.7222 20.5639 36.7222H24.4361C25.2333 36.7222 25.9167 36.1528 26.1444 35.4694L27.1694 32.1667L28.8778 31.4833L31.8389 33.0778C32.5222 33.4194 33.4333 33.3055 34.0028 32.7361L36.7361 30.0028C37.3055 29.4333 37.4194 28.5222 37.0778 27.8389L35.4833 24.8778L36.1667 23.1694L39.4694 22.1444C40.1528 21.9167 40.7222 21.2333 40.7222 20.4361V16.5639C40.7222 15.7667 40.1528 14.9694 39.3555 14.7417ZM38.4444 20.0944L34.3444 21.3472L34.2305 21.9167L33.2055 24.3083L32.8639 24.8778L34.9139 28.6361L32.6361 30.9139L28.8778 28.8639L28.3083 29.2055C27.5111 29.6611 26.7139 30.0028 25.9167 30.2305L25.3472 30.3444L24.0944 34.4444H20.9055L19.6528 30.3444L19.0833 30.2305L16.6917 29.2055L16.1222 28.8639L12.3639 30.9139L10.0861 28.6361L12.1361 24.8778L11.7944 24.3083C11.3389 23.5111 10.9972 22.7139 10.7694 21.9167L10.6555 21.3472L6.55555 20.0944V16.9055L10.4278 15.7667L10.6555 15.1972C10.8833 14.2861 11.225 13.4889 11.6805 12.6917L12.0222 12.1222L10.0861 8.36388L12.3639 6.0861L16.0083 8.1361L16.5778 7.79444C17.375 7.33888 18.1722 6.99721 19.0833 6.76944L19.6528 6.54166L20.9055 2.55555H24.0944L25.3472 6.54166L25.9167 6.76944C26.7139 6.99721 27.5111 7.33888 28.3083 7.79444L28.8778 8.1361L32.6361 6.0861L34.9139 8.36388L32.8639 12.1222L33.2055 12.6917C33.6611 13.4889 34.0028 14.2861 34.2305 15.0833L34.3444 15.6528L38.4444 16.9055V20.0944Z" fill="#313131"/>
</g>
<defs>
<filter id="filter0_d_96_29" x="0.277771" y="0.277771" width="44.4445" height="44.4445" filterUnits="userSpaceOnUse" color-interpolation-filters="sRGB">
<feFlood flood-opacity="0" result="BackgroundImageFix"/>
<feColorMatrix in="SourceAlpha" type="matrix" values="0 0 0 0 0 0 0 0 0 0 0 0 0 0 0 0 0 0 127 0" result="hardAlpha"/>
<feOffset dy="4"/>
<feGaussianBlur stdDeviation="2"/>
<feComposite in2="hardAlpha" operator="out"/>
<feColorMatrix type="matrix" values="0 0 0 0 0 0 0 0 0 0 0 0 0 0 0 0 0 0 0.25 0"/>
<feBlend mode="normal" in2="BackgroundImageFix" result="effect1_dropShadow_96_29"/>
<feBlend mode="normal" in="SourceGraphic" in2="effect1_dropShadow_96_29" result="shape"/>
</filter>
</defs>
</svg>
