<svg width="16" height="16" viewBox="0 0 16 16" fill="none" xmlns="http://www.w3.org/2000/svg">
<path d="M14.2222 14.2222V1.77778H1.77778V14.2222H14.2222ZM14.2222 0C14.6937 0 15.1459 0.187301 15.4793 0.520699C15.8127 0.854097 16 1.30628 16 1.77778V14.2222C16 14.6937 15.8127 15.1459 15.4793 15.4793C15.1459 15.8127 14.6937 16 14.2222 16H1.77778C1.30628 16 0.854097 15.8127 0.520699 15.4793C0.187301 15.1459 0 14.6937 0 14.2222V1.77778C0 1.30628 0.187301 0.854097 0.520699 0.520699C0.854097 0.187301 1.30628 0 1.77778 0H14.2222ZM12.1778 5.64444L11.2889 6.53333L9.46667 4.71111L10.3556 3.82222C10.5422 3.62667 10.8533 3.62667 11.04 3.82222L12.1778 4.96C12.3733 5.14667 12.3733 5.45778 12.1778 5.64444ZM3.55556 10.6133L8.94222 5.22667L10.7733 7.05778L5.38667 12.4444H3.55556V10.6133Z" fill="white"/>
</svg>
